<svg width="18" height="18" viewBox="0 0 18 18" fill="none" xmlns="http://www.w3.org/2000/svg">
<path fill-rule="evenodd" clip-rule="evenodd" d="M1.70711 0.706956C1.31658 0.316431 0.683417 0.316431 0.292893 0.706956C-0.0976312 1.09748 -0.0976309 1.73065 0.292893 2.12117L7.57114 9.39941L0.707107 16.2634C0.316582 16.654 0.316582 17.2871 0.707107 17.6777C1.09763 18.0682 1.7308 18.0682 2.12132 17.6777L8.98535 10.8136L15.8492 17.6775C16.2398 18.068 16.8729 18.068 17.2635 17.6775C17.654 17.287 17.654 16.6538 17.2635 16.2633L10.3996 9.39941L17.6777 2.12131C18.0682 1.73079 18.0682 1.09762 17.6777 0.707096C17.2871 0.316572 16.654 0.316572 16.2635 0.707097L8.98535 7.9852L1.70711 0.706956Z" fill="#373737"/>
</svg>
