<svg width="25" height="25" viewBox="0 0 25 25" fill="none" xmlns="http://www.w3.org/2000/svg">
<rect width="25" height="25" rx="4" fill="white"/>
<path d="M17.6293 16.1863L14.7855 14.9675C14.664 14.9157 14.529 14.9048 14.4007 14.9364C14.2725 14.968 14.158 15.0404 14.0745 15.1427L12.8151 16.6814C10.8386 15.7495 9.24798 14.1588 8.31607 12.1823L9.85477 10.9229C9.95727 10.8396 10.0298 10.7251 10.0614 10.5968C10.093 10.4685 10.082 10.3334 10.03 10.212L8.8112 7.36819C8.7541 7.23728 8.65311 7.13039 8.52564 7.06596C8.39817 7.00153 8.25222 6.9836 8.11294 7.01526L5.47227 7.62464C5.338 7.65565 5.2182 7.73126 5.13242 7.83912C5.04665 7.94698 4.99997 8.08073 5 8.21854C5 14.7314 10.2788 20 16.7815 20C16.9193 20.0001 17.0531 19.9534 17.161 19.8677C17.2689 19.7819 17.3446 19.662 17.3756 19.5277L17.985 16.8871C18.0164 16.7471 17.9981 16.6006 17.9332 16.4727C17.8683 16.3448 17.7608 16.2435 17.6293 16.1863V16.1863Z" fill="black"/>
<path d="M14.5598 5.74438C14.755 5.54906 14.7549 5.23247 14.5595 5.03728C14.3642 4.84208 14.0476 4.84219 13.8524 5.03751L14.5598 5.74438ZM11.9131 11.4936L12.2776 11.1513L12.2776 11.1513L11.9131 11.4936ZM19.7408 10.0579C19.8004 9.78822 19.6301 9.52134 19.3604 9.46177L14.9664 8.49102C14.6967 8.43145 14.4299 8.60175 14.3703 8.87139C14.3107 9.14103 14.481 9.4079 14.7507 9.46747L18.6565 10.3304L17.7936 14.2362C17.734 14.5058 17.9043 14.7727 18.174 14.8323C18.4436 14.8918 18.7105 14.7215 18.7701 14.4519L19.7408 10.0579ZM14.2061 5.39095C13.8524 5.03751 13.8523 5.03761 13.8522 5.03772C13.8522 5.03778 13.852 5.03791 13.8519 5.03802C13.8517 5.03826 13.8514 5.03855 13.851 5.03891C13.8503 5.03963 13.8494 5.0406 13.8482 5.04182C13.8457 5.04425 13.8424 5.04768 13.838 5.05208C13.8294 5.06088 13.8169 5.07357 13.8011 5.08994C13.7693 5.12269 13.7238 5.17023 13.6669 5.23101C13.5532 5.3525 13.3939 5.5273 13.209 5.74298C12.8405 6.17279 12.3642 6.77208 11.9448 7.44025C11.5292 8.10218 11.1483 8.86466 11.0027 9.61685C10.8549 10.3803 10.9427 11.1906 11.5487 11.8359L12.2776 11.1513C11.9618 10.815 11.8752 10.3718 11.9845 9.80687C12.096 9.23076 12.4035 8.59027 12.7917 7.97193C13.1759 7.35984 13.6186 6.80155 13.9682 6.39386C14.1423 6.19078 14.2917 6.02685 14.397 5.9143C14.4497 5.85805 14.4912 5.81474 14.5192 5.78589C14.5331 5.77147 14.5437 5.76067 14.5506 5.75369C14.554 5.75019 14.5565 5.74766 14.5581 5.7461C14.5589 5.74532 14.5594 5.74478 14.5597 5.7445C14.5598 5.74435 14.5599 5.74427 14.5599 5.74425C14.5599 5.74424 14.5599 5.74428 14.5599 5.74427C14.5598 5.74432 14.5598 5.74438 14.2061 5.39095ZM11.5487 11.8359C12.1573 12.484 13.0288 12.6368 13.8717 12.5795C14.7201 12.5218 15.6347 12.247 16.4573 11.9233C17.2856 11.5974 18.0501 11.21 18.6053 10.9058C18.8837 10.7533 19.111 10.6207 19.2695 10.5259C19.3488 10.4785 19.4109 10.4405 19.4537 10.414C19.475 10.4008 19.4915 10.3904 19.503 10.3832C19.5087 10.3797 19.5131 10.3769 19.5162 10.3749C19.5177 10.3739 19.519 10.3731 19.5199 10.3726C19.5203 10.3723 19.5207 10.372 19.5209 10.3719C19.5211 10.3718 19.5212 10.3717 19.5213 10.3716C19.5214 10.3716 19.5215 10.3715 19.2526 9.95C18.9836 9.5285 18.9837 9.52846 18.9837 9.52843C18.9837 9.52844 18.9837 9.52843 18.9837 9.52844C18.9836 9.52848 18.9835 9.52857 18.9833 9.52871C18.9828 9.52899 18.9821 9.52948 18.981 9.53017C18.9788 9.53156 18.9753 9.53376 18.9706 9.53675C18.9611 9.54273 18.9465 9.55184 18.9272 9.56381C18.8885 9.58776 18.8307 9.62314 18.7561 9.66777C18.6069 9.75707 18.3905 9.88318 18.1248 10.0288C17.592 10.3207 16.8673 10.6873 16.0912 10.9927C15.3094 11.3003 14.5044 11.5341 13.8038 11.5818C13.0977 11.6298 12.5909 11.4849 12.2776 11.1513L11.5487 11.8359Z" fill="black"/>
</svg>
