<svg width="55" height="55" viewBox="0 0 55 55" fill="none" xmlns="http://www.w3.org/2000/svg">
<rect width="55" height="55" rx="4" fill="white"/>
<path d="M33.9821 32.2143H44V12.7679C44 11.7882 43.2118 11 42.2321 11H12.7679C11.7882 11 11 11.7882 11 12.7679V42.2321C11 43.2118 11.7882 44 12.7679 44H32.2143V33.9821C32.2143 33.0098 33.0098 32.2143 33.9821 32.2143ZM43.4844 36.2656L36.2656 43.4844C35.9342 43.8159 35.4848 44 35.0134 44H34.5714V34.5714H44V35.0208C44 35.4848 43.8159 35.9342 43.4844 36.2656Z" fill="black"/>
<line x1="17.5996" y1="17.1001" x2="37.3996" y2="17.1001" stroke="white"/>
<line x1="17.5996" y1="21.5" x2="37.3996" y2="21.5" stroke="white"/>
<line x1="17.5996" y1="25.8999" x2="37.3996" y2="25.8999" stroke="white"/>
<path d="M17.5996 29.7002H28.5996" stroke="white"/>
</svg>
