<svg width="25" height="25" viewBox="0 0 25 25" fill="none" xmlns="http://www.w3.org/2000/svg">
<rect width="25" height="25" rx="4" fill="white"/>
<path d="M17.6293 16.1863L14.7855 14.9675C14.664 14.9157 14.529 14.9048 14.4007 14.9364C14.2725 14.968 14.158 15.0404 14.0745 15.1427L12.8151 16.6814C10.8386 15.7495 9.24798 14.1588 8.31607 12.1823L9.85477 10.9229C9.95727 10.8396 10.0298 10.7251 10.0614 10.5968C10.093 10.4685 10.082 10.3334 10.03 10.212L8.8112 7.36819C8.7541 7.23728 8.65311 7.13039 8.52564 7.06596C8.39817 7.00153 8.25222 6.9836 8.11294 7.01526L5.47227 7.62464C5.338 7.65565 5.2182 7.73126 5.13242 7.83912C5.04665 7.94698 4.99997 8.08073 5 8.21854C5 14.7314 10.2788 20 16.7815 20C16.9193 20.0001 17.0531 19.9534 17.161 19.8677C17.2689 19.7819 17.3446 19.662 17.3756 19.5277L17.985 16.8871C18.0164 16.7471 17.9981 16.6006 17.9332 16.4727C17.8683 16.3448 17.7608 16.2435 17.6293 16.1863V16.1863Z" fill="black"/>
<path d="M12 9.5H18" stroke="black" stroke-linecap="round"/>
<path d="M13 11.5H18" stroke="black" stroke-linecap="round"/>
<path d="M14 13.5H18" stroke="black" stroke-linecap="round"/>
</svg>
